<?xml version="1.0" standalone="no"?><?xml-stylesheet type="text/css" href="https://wps.processon.com/themes/default/wps/mind/icons/icons.css" ?><!DOCTYPE svg PUBLIC "-//W3C//DTD SVG 1.1//EN" "http://www.w3.org/Graphics/SVG/1.1/DTD/svg11.dtd"><svg xmlns="http://www.w3.org/2000/svg" xlink="http://www.w3.org/1999/xlink" id="mind-svg-view-con" version="1.1" width="837.0000305175781px" height="622px" style="position: absolute; width: 837px; height: 622px; transform-origin: 0px 0px;"><defs></defs><g id="svgbackgroundid"><defs></defs><rect x="0" y="0" width="837.0000305175781" height="622" fill="#fafafa"></rect></g><g><defs><pattern patternUnits="userSpaceOnUse" id="pattern_mark_0" width="300" height="300"><text x="150" y="100" fill="rgb(230,230,230)" font-size="18" transform="rotate(-45, 150, 150)" style="dominant-baseline: middle; text-anchor: middle;"></text></pattern></defs><rect fill="url(#pattern_mark_0)" x="0" y="0" width="837.0000305175781" height="622" id="rect_mark_0" pointer-events="none"></rect></g><g transform="translate(-9896.00033569336, -9641)" id="sdjakdjak6"><defs></defs><g class="svg-topic-con" transform="translate(0.5,0.5)"><path part="right" sub="true" id="line_6c1c3cf49b456fb8" d="M 10000.00033569336 9952 L 10104.00033569336 9952 L 10104.00033569336 9731 A 8 8 0 0 1 10112.00033569336 9723 L 10134.00033569336 9723" stroke="#746ea6" fill="none" stroke-width="1"></path><path part="right" sub="true" id="line_1e83cbcc71c5c367" d="M 10000.00033569336 9952 L 10104.00033569336 9952 L 10104.00033569336 9836 A 8 8 0 0 1 10112.00033569336 9828 L 10134.00033569336 9828" stroke="#746ea6" fill="none" stroke-width="1"></path><path part="right" sub="true" id="line_621763fa853c568d" d="M 10000.00033569336 9952 L 10104.00033569336 9952 L 10104.00033569336 9952 L 10134.00033569336 9952" stroke="#746ea6" fill="none" stroke-width="1"></path><path part="right" sub="true" id="line_9f8e54a774fe7658" d="M 10000.00033569336 9952 L 10104.00033569336 9952 L 10104.00033569336 10087 A 8 8 0 0 0 10112.00033569336 10095 L 10134.00033569336 10095" stroke="#746ea6" fill="none" stroke-width="1"></path><path part="right" sub="true" id="line_f5938d256eb5f3b8" d="M 10000.00033569336 9952 L 10104.00033569336 9952 L 10104.00033569336 10192 A 8 8 0 0 0 10112.00033569336 10200 L 10134.00033569336 10200" stroke="#746ea6" fill="none" stroke-width="1"></path></g><g class="svg-connection-con" transform="translate(0.5,0.5)"></g><g class="svg-freesums-con" transform="translate(0.5,0.5)"></g><g class="svg-freebos-con" transform="translate(0.5,0.5)"></g></g><g id="f5938d256eb5f3b8"><rect x="238.00003051757812" y="543.46875" rx="6px" ry="6px" width="100" height="31" style="fill: #fff; stroke:#d1cecd;stroke-width:1px;"></rect><g><text text-anchor="start" align="top" anchor="start" font-size="13px" font-weight="normal" fill="rgb(89, 89, 89)" style="font-size:13px;font-family:arial, 黑体;color:#595959;font-style:normal;text-align:left;font-weight:normal;"><tspan x="249" y="563"><tspan dx="0">核型演化分析</tspan></tspan></text></g></g><g id="93a265f6fa081e49"><rect x="374.0000305175781" y="526" rx="1px" ry="1px" width="137" height="28" style="fill: transparent; stroke:none;stroke-width:0px;"></rect><g><text text-anchor="start" align="top" anchor="start" font-size="12px" font-weight="normal" fill="rgb(96, 96, 96)" style="font-size:12px;font-family:arial, 黑体;color:#606060;font-style:normal;text-align:left;font-weight:normal;"><tspan x="384" y="542.1600000000001"><tspan dx="0">WGDI祖先染色体重建</tspan></tspan></text></g></g><g id="14eb01253ed247e6"><rect x="374.0000305175781" y="564" rx="1px" ry="1px" width="128" height="28" style="fill: transparent; stroke:none;stroke-width:0px;"></rect><g><text text-anchor="start" align="top" anchor="start" font-size="12px" font-weight="normal" fill="rgb(96, 96, 96)" style="font-size:12px;font-family:arial, 黑体;color:#606060;font-style:normal;text-align:left;font-weight:normal;"><tspan x="384" y="580.1600000000001"><tspan dx="0">染色体杂交类型判断</tspan></tspan></text></g></g><g id="2557eec0258f72f5"><rect x="546.6666564941406" y="547" rx="1px" ry="1px" width="144" height="24" style="fill: transparent; stroke:none;stroke-width:0px;"></rect><g><text text-anchor="start" align="top" anchor="start" font-size="12px" font-weight="normal" fill="rgb(96, 96, 96)" style="font-size:12px;font-family:arial, 黑体;color:#606060;font-style:normal;text-align:left;font-weight:normal;"><tspan x="553" y="561.1600000000001"><tspan dx="0">蔷薇科核型演化历史推断</tspan></tspan></text></g></g><g id="9f8e54a774fe7658"><rect x="238.00003051757812" y="438.46875" rx="6px" ry="6px" width="113" height="31" style="fill: #fff; stroke:#d1cecd;stroke-width:1px;"></rect><g><text text-anchor="start" align="top" anchor="start" font-size="13px" font-weight="normal" fill="rgb(89, 89, 89)" style="font-size:13px;font-family:arial, 黑体;color:#595959;font-style:normal;text-align:left;font-weight:normal;"><tspan x="249" y="458"><tspan dx="0">系统发育树构建</tspan></tspan></text></g></g><g id="2f3b7899492035d6"><rect x="387.0000305175781" y="421" rx="1px" ry="1px" width="176" height="28" style="fill: transparent; stroke:none;stroke-width:0px;"></rect><g><text text-anchor="start" align="top" anchor="start" font-size="12px" font-weight="normal" fill="rgb(96, 96, 96)" style="font-size:12px;font-family:arial, 黑体;color:#606060;font-style:normal;text-align:left;font-weight:normal;"><tspan x="397" y="437.15999999999997"><tspan dx="0">直系同源基因建立系统发育树</tspan></tspan></text></g></g><g id="7411e8862f4cac7c"><rect x="599.0000305175781" y="402" rx="1px" ry="1px" width="116" height="28" style="fill: transparent; stroke:none;stroke-width:0px;"></rect><g><text text-anchor="start" align="top" anchor="start" font-size="12px" font-weight="normal" fill="rgb(96, 96, 96)" style="font-size:12px;font-family:arial, 黑体;color:#606060;font-style:normal;text-align:left;font-weight:normal;"><tspan x="609" y="418.15999999999997"><tspan dx="0">核基因系统发育树</tspan></tspan></text></g></g><g id="06ce5551beaa7a7f"><rect x="599.0000305175781" y="440" rx="1px" ry="1px" width="140" height="28" style="fill: transparent; stroke:none;stroke-width:0px;"></rect><g><text text-anchor="start" align="top" anchor="start" font-size="12px" font-weight="normal" fill="rgb(96, 96, 96)" style="font-size:12px;font-family:arial, 黑体;color:#606060;font-style:normal;text-align:left;font-weight:normal;"><tspan x="609" y="456.15999999999997"><tspan dx="0">叶绿体基因系统发育树</tspan></tspan></text></g></g><g id="fbd597afbdaf711e"><rect x="387.0000305175781" y="478" rx="1px" ry="1px" width="164" height="28" style="fill: transparent; stroke:none;stroke-width:0px;"></rect><g><text text-anchor="start" align="top" anchor="start" font-size="12px" font-weight="normal" fill="rgb(96, 96, 96)" style="font-size:12px;font-family:arial, 黑体;color:#606060;font-style:normal;text-align:left;font-weight:normal;"><tspan x="397" y="494.15999999999997"><tspan dx="0">共线性基因建立系统发育树</tspan></tspan></text></g></g><g id="489e8c837fd37116"><rect x="587.0000305175781" y="478" rx="1px" ry="1px" width="128" height="28" style="fill: transparent; stroke:none;stroke-width:0px;"></rect><g><text text-anchor="start" align="top" anchor="start" font-size="12px" font-weight="normal" fill="rgb(96, 96, 96)" style="font-size:12px;font-family:arial, 黑体;color:#606060;font-style:normal;text-align:left;font-weight:normal;"><tspan x="597" y="494.15999999999997"><tspan dx="0">亚基因组系统发育树</tspan></tspan></text></g></g><g id="24c2325ab5b8b974"><rect x="751.0000305175781" y="478" rx="1px" ry="1px" width="56" height="28" style="fill: transparent; stroke:none;stroke-width:0px;"></rect><g><text text-anchor="start" align="top" anchor="start" font-size="12px" font-weight="normal" fill="rgb(96, 96, 96)" style="font-size:12px;font-family:arial, 黑体;color:#606060;font-style:normal;text-align:left;font-weight:normal;"><tspan x="761" y="494.15999999999997"><tspan dx="0">溯祖法</tspan></tspan></text></g></g><g id="621763fa853c568d"><rect x="238.00003051757812" y="295.46875" rx="6px" ry="6px" width="184" height="31" style="fill: #fff; stroke:#d1cecd;stroke-width:1px;"></rect><g><text text-anchor="start" align="top" anchor="start" font-size="13px" font-weight="normal" fill="rgb(89, 89, 89)" style="font-size:13px;font-family:arial, 黑体;color:#595959;font-style:normal;text-align:left;font-weight:normal;"><tspan x="249" y="315"><tspan dx="0">共线性分析及WGD事件检测</tspan></tspan></text></g></g><g id="71a7e54a37049ce6"><rect x="457.7708435058594" y="240" rx="1px" ry="1px" width="97" height="28" style="fill: transparent; stroke:none;stroke-width:0px;"></rect><g><text text-anchor="start" align="top" anchor="start" font-size="12px" font-weight="normal" fill="rgb(96, 96, 96)" style="font-size:12px;font-family:arial, 黑体;color:#606060;font-style:normal;text-align:left;font-weight:normal;"><tspan x="468" y="256.15999999999997"><tspan dx="0">WGD事件检测</tspan></tspan></text></g></g><g id="43219bd9eff6f0ad"><rect x="457.7708435058594" y="278" rx="1px" ry="1px" width="128" height="28" style="fill: transparent; stroke:none;stroke-width:0px;"></rect><g><text text-anchor="start" align="top" anchor="start" font-size="12px" font-weight="normal" fill="rgb(96, 96, 96)" style="font-size:12px;font-family:arial, 黑体;color:#606060;font-style:normal;text-align:left;font-weight:normal;"><tspan x="468" y="294.15999999999997"><tspan dx="0">染色体共线性性判断</tspan></tspan></text></g></g><g id="0c62b3346030a84f"><rect x="457.7708435058594" y="316" rx="1px" ry="1px" width="104" height="28" style="fill: transparent; stroke:none;stroke-width:0px;"></rect><g><text text-anchor="start" align="top" anchor="start" font-size="12px" font-weight="normal" fill="rgb(96, 96, 96)" style="font-size:12px;font-family:arial, 黑体;color:#606060;font-style:normal;text-align:left;font-weight:normal;"><tspan x="468" y="332.15999999999997"><tspan dx="0">抓取共线性基因</tspan></tspan></text></g></g><g id="7d76e6b018da5d59"><rect x="457.7708435058594" y="354" rx="1px" ry="1px" width="92" height="28" style="fill: transparent; stroke:none;stroke-width:0px;"></rect><g><text text-anchor="start" align="top" anchor="start" font-size="12px" font-weight="normal" fill="rgb(96, 96, 96)" style="font-size:12px;font-family:arial, 黑体;color:#606060;font-style:normal;text-align:left;font-weight:normal;"><tspan x="468" y="370.15999999999997"><tspan dx="0">划分亚基因组</tspan></tspan></text></g></g><g id="1e83cbcc71c5c367"><rect x="238.00003051757812" y="171.46875" rx="6px" ry="6px" width="74" height="31" style="fill: #fff; stroke:#d1cecd;stroke-width:1px;"></rect><g><text text-anchor="start" align="top" anchor="start" font-size="13px" font-weight="normal" fill="rgb(89, 89, 89)" style="font-size:13px;font-family:arial, 黑体;color:#595959;font-style:normal;text-align:left;font-weight:normal;"><tspan x="249" y="191"><tspan dx="0">数据收集</tspan></tspan></text></g></g><g id="65bf66cf6ca7f9af"><rect x="348.0000305175781" y="154" rx="1px" ry="1px" width="224" height="28" style="fill: transparent; stroke:none;stroke-width:0px;"></rect><g><text text-anchor="start" align="top" anchor="start" font-size="12px" font-weight="normal" fill="rgb(96, 96, 96)" style="font-size:12px;font-family:arial, 黑体;color:#606060;font-style:normal;text-align:left;font-weight:normal;"><tspan x="358" y="170.16"><tspan dx="0">收集高质量的染色体级别全基因组数据</tspan></tspan></text></g></g><g id="2e708d09059e6f9f"><rect x="348.0000305175781" y="192" rx="1px" ry="1px" width="152" height="28" style="fill: transparent; stroke:none;stroke-width:0px;"></rect><g><text text-anchor="start" align="top" anchor="start" font-size="12px" font-weight="normal" fill="rgb(96, 96, 96)" style="font-size:12px;font-family:arial, 黑体;color:#606060;font-style:normal;text-align:left;font-weight:normal;"><tspan x="358" y="208.16"><tspan dx="0">全基因组测序（仙女木）</tspan></tspan></text></g></g><g id="6c1c3cf49b456fb8"><rect x="238.00003051757812" y="66.46875" rx="6px" ry="6px" width="100" height="31" style="fill: #fff; stroke:#d1cecd;stroke-width:1px;"></rect><g><text text-anchor="start" align="top" anchor="start" font-size="13px" font-weight="normal" fill="rgb(89, 89, 89)" style="font-size:13px;font-family:arial, 黑体;color:#595959;font-style:normal;text-align:left;font-weight:normal;"><tspan x="249" y="86"><tspan dx="0">研究类群选取</tspan></tspan></text></g></g><g id="f16328baeb2988c0"><rect x="374.0000305175781" y="30" rx="1px" ry="1px" width="68" height="28" style="fill: transparent; stroke:none;stroke-width:0px;"></rect><g><text text-anchor="start" align="top" anchor="start" font-size="12px" font-weight="normal" fill="rgb(96, 96, 96)" style="font-size:12px;font-family:arial, 黑体;color:#606060;font-style:normal;text-align:left;font-weight:normal;"><tspan x="384" y="46.16"><tspan dx="0">倍性信息</tspan></tspan></text></g></g><g id="0296390f7eafaa59"><rect x="374.0000305175781" y="68" rx="1px" ry="1px" width="92" height="28" style="fill: transparent; stroke:none;stroke-width:0px;"></rect><g><text text-anchor="start" align="top" anchor="start" font-size="12px" font-weight="normal" fill="rgb(96, 96, 96)" style="font-size:12px;font-family:arial, 黑体;color:#606060;font-style:normal;text-align:left;font-weight:normal;"><tspan x="384" y="84.16"><tspan dx="0">网状进化信息</tspan></tspan></text></g></g><g id="e61daf98ddc4bcef"><rect x="374.0000305175781" y="106" rx="1px" ry="1px" width="122" height="28" style="fill: transparent; stroke:none;stroke-width:0px;"></rect><g><text text-anchor="start" align="top" anchor="start" font-size="12px" font-weight="normal" fill="rgb(96, 96, 96)" style="font-size:12px;font-family:arial, 黑体;color:#606060;font-style:normal;text-align:left;font-weight:normal;"><tspan x="384" y="122.16"><tspan dx="0">ILS及基因渐渗程度</tspan></tspan></text></g></g><g transform="translate(238.00003051757812, 526)" id="sdjakdjak0"><g id="subline_f5938d256eb5f3b8" transform="translate(0.5, 0.5)"><path id="line_93a265f6fa081e49" d="M 100 33 L 118 33 L 118 18 A 4 4 0 0 1 122 14 L 136 14" p="f5938d256eb5f3b8" stroke="#746e6a" fill="none" stroke-linecap="square" stroke-width="1"></path><path id="line_14eb01253ed247e6" d="M 100 33 L 118 33 L 118 48 A 4 4 0 0 0 122 52 L 136 52" p="f5938d256eb5f3b8" stroke="#746e6a" fill="none" stroke-linecap="square" stroke-width="1"></path></g><g transform="translate(0.5,0.5)"></g><g class="svg-summary-con" transform="translate(0.5,0.5)"><path id="sum_2557eec0258f72f5" fill="none" stroke="#bf1e1b" stroke-width="1" d="M 290 4 C 307 8 282 28 304 33 M 290 62 C 307 58 282 38 304 33" stroke-linecap="round"></path></g><g class="svg-boundary-con" transform="translate(0.5,0.5)"></g></g><g transform="translate(238.00003051757812, 402)" id="sdjakdjak1"><g id="subline_9f8e54a774fe7658" transform="translate(0.5, 0.5)"><path id="line_2f3b7899492035d6" d="M 113 52 L 131 52 L 131 37 A 4 4 0 0 1 135 33 L 149 33" p="9f8e54a774fe7658" stroke="#746e6a" fill="none" stroke-linecap="square" stroke-width="1"></path><path id="line_7411e8862f4cac7c" d="M 325 33 L 343 33 L 343 18 A 4 4 0 0 1 347 14 L 361 14" p="2f3b7899492035d6" stroke="#746e6a" fill="none" stroke-linecap="square" stroke-width="1"></path><path id="line_06ce5551beaa7a7f" d="M 325 33 L 343 33 L 343 48 A 4 4 0 0 0 347 52 L 361 52" p="2f3b7899492035d6" stroke="#746e6a" fill="none" stroke-linecap="square" stroke-width="1"></path><path id="line_fbd597afbdaf711e" d="M 113 52 L 131 52 L 131 86 A 4 4 0 0 0 135 90 L 149 90" p="9f8e54a774fe7658" stroke="#746e6a" fill="none" stroke-linecap="square" stroke-width="1"></path><path id="line_489e8c837fd37116" d="M 313 90 L 331 90 L 331 90 L 349 90" p="fbd597afbdaf711e" stroke="#746e6a" fill="none" stroke-linecap="square" stroke-width="1"></path><path id="line_24c2325ab5b8b974" d="M 477 90 L 495 90 L 495 90 L 513 90" p="489e8c837fd37116" stroke="#746e6a" fill="none" stroke-linecap="square" stroke-width="1"></path></g><g transform="translate(0.5,0.5)"></g><g class="svg-summary-con" transform="translate(0.5,0.5)"></g><g class="svg-boundary-con" transform="translate(0.5,0.5)"></g></g><g transform="translate(238.00003051757812, 240)" id="sdjakdjak2"><g id="subline_621763fa853c568d" transform="translate(0.5, 0.5)"><path id="line_71a7e54a37049ce6" d="M 183.77084350585938 71 L 202 71 L 202 18 A 4 4 0 0 1 206 14 L 219.77081298828125 14" p="621763fa853c568d" stroke="#746e6a" fill="none" stroke-linecap="square" stroke-width="1"></path><path id="line_43219bd9eff6f0ad" d="M 183.77084350585938 71 L 202 71 L 202 56 A 4 4 0 0 1 206 52 L 219.77081298828125 52" p="621763fa853c568d" stroke="#746e6a" fill="none" stroke-linecap="square" stroke-width="1"></path><path id="line_0c62b3346030a84f" d="M 183.77084350585938 71 L 202 71 L 202 86 A 4 4 0 0 0 206 90 L 219.77081298828125 90" p="621763fa853c568d" stroke="#746e6a" fill="none" stroke-linecap="square" stroke-width="1"></path><path id="line_7d76e6b018da5d59" d="M 183.77084350585938 71 L 202 71 L 202 124 A 4 4 0 0 0 206 128 L 219.77081298828125 128" p="621763fa853c568d" stroke="#746e6a" fill="none" stroke-linecap="square" stroke-width="1"></path></g><g transform="translate(0.5,0.5)"></g><g class="svg-summary-con" transform="translate(0.5,0.5)"></g><g class="svg-boundary-con" transform="translate(0.5,0.5)"></g></g><g transform="translate(238.00003051757812, 154)" id="sdjakdjak3"><g id="subline_1e83cbcc71c5c367" transform="translate(0.5, 0.5)"><path id="line_65bf66cf6ca7f9af" d="M 74 33 L 92 33 L 92 18 A 4 4 0 0 1 96 14 L 110 14" p="1e83cbcc71c5c367" stroke="#746e6a" fill="none" stroke-linecap="square" stroke-width="1"></path><path id="line_2e708d09059e6f9f" d="M 74 33 L 92 33 L 92 48 A 4 4 0 0 0 96 52 L 110 52" p="1e83cbcc71c5c367" stroke="#746e6a" fill="none" stroke-linecap="square" stroke-width="1"></path></g><g transform="translate(0.5,0.5)"></g><g class="svg-summary-con" transform="translate(0.5,0.5)"></g><g class="svg-boundary-con" transform="translate(0.5,0.5)"></g></g><g transform="translate(238.00003051757812, 30)" id="sdjakdjak4"><g id="subline_6c1c3cf49b456fb8" transform="translate(0.5, 0.5)"><path id="line_f16328baeb2988c0" d="M 100 52 L 118 52 L 118 18 A 4 4 0 0 1 122 14 L 136 14" p="6c1c3cf49b456fb8" stroke="#746e6a" fill="none" stroke-linecap="square" stroke-width="1"></path><path id="line_0296390f7eafaa59" d="M 100 52 L 118 52 L 118 52 L 136 52" p="6c1c3cf49b456fb8" stroke="#746e6a" fill="none" stroke-linecap="square" stroke-width="1"></path><path id="line_e61daf98ddc4bcef" d="M 100 52 L 118 52 L 118 86 A 4 4 0 0 0 122 90 L 136 90" p="6c1c3cf49b456fb8" stroke="#746e6a" fill="none" stroke-linecap="square" stroke-width="1"></path></g><g transform="translate(0.5,0.5)"></g><g class="svg-summary-con" transform="translate(0.5,0.5)"></g><g class="svg-boundary-con" transform="translate(0.5,0.5)"></g></g><g transform="translate(30, 293)" id="sdjakdjak5"><g id="subline_root" transform="translate(0.5, 0.5)"></g><g transform="translate(0.5,0.5)"></g><g class="svg-summary-con" transform="translate(0.5,0.5)"></g><g class="svg-boundary-con" transform="translate(0.5,0.5)"></g></g><g id="root"><rect x="30" y="293" rx="6px" ry="6px" width="148" height="36" style="fill: #dddddd; stroke:#b2afad;stroke-width:1px;"></rect><g><text text-anchor="start" align="top" anchor="start" font-size="14px" font-weight="normal" fill="rgb(78, 78, 78)" style="font-size:14px;font-family:arial, 黑体;color:#4e4e4e;font-style:normal;text-align:left;font-weight:normal;"><tspan x="41" y="317"><tspan dx="0">蔷薇科核型演化研究</tspan></tspan></text></g></g><g transform="translate(293.50001525878906, 349)"><text id="normal_brand" style="transform:rotate(-30deg);opacity: 0.06; color:#000; font-family: Microsoft Yahei;"><tspan font-size="48" dy="0" x="0"></tspan></text></g></svg>